<svg width="18" height="14" viewBox="0 0 18 14" fill="none" xmlns="http://www.w3.org/2000/svg">
<path fill-rule="evenodd" clip-rule="evenodd" d="M17.3398 7.02004C17.3398 6.5506 16.9593 6.17004 16.4898 6.17004L3.21242 6.17004C2.74297 6.17004 2.36242 6.5506 2.36242 7.02004C2.36242 7.48949 2.74297 7.87004 3.21242 7.87004L16.4898 7.87004C16.9593 7.87004 17.3398 7.48949 17.3398 7.02004Z" fill="black"/>
<path fill-rule="evenodd" clip-rule="evenodd" d="M7.12936 1.43991C6.79742 1.10796 6.25923 1.10796 5.92728 1.43991L1.63243 5.73476C0.909957 6.45723 0.909956 7.62858 1.63243 8.35105L5.9076 12.6262C6.23954 12.9582 6.77773 12.9582 7.10968 12.6262C7.44162 12.2943 7.44162 11.7561 7.10968 11.4241L2.83451 7.14897C2.77593 7.09039 2.77593 6.99542 2.83451 6.93684L7.12936 2.64199C7.46131 2.31004 7.46131 1.77185 7.12936 1.43991Z" fill="black"/>
</svg>
