<svg width="91" height="62" viewBox="0 0 91 62" fill="none" xmlns="http://www.w3.org/2000/svg">
<path d="M42.3604 27.289C42.0652 28.3329 41.6111 29.3249 41.0141 30.2297C40.3962 31.173 39.6152 31.9979 38.7079 32.6653C37.7232 33.3874 36.627 33.9424 35.4632 34.3083C34.1337 34.725 32.7469 34.9286 31.3541 34.9113C29.745 34.9154 28.149 34.6213 26.6463 34.044C25.166 33.4805 23.8114 32.6289 22.6604 31.5381C21.481 30.4088 20.5482 29.0461 19.921 27.5362C19.2225 25.8238 18.8793 23.9864 18.9123 22.1364C18.8859 20.3417 19.221 18.5601 19.8977 16.8985C20.5075 15.4103 21.4062 14.0586 22.5415 12.9222C24.75 10.7385 27.7228 9.50929 30.8232 9.4978C34.5366 9.4978 37.4593 10.5746 39.5913 12.7283C41.7234 14.882 42.7887 17.9036 42.7873 21.7933C42.7873 22.3076 42.771 22.7977 42.7384 23.2636C42.7332 23.5311 42.7012 23.7974 42.6428 24.0585H26.0241C26.0482 24.7079 26.2211 25.343 26.5295 25.9145C26.8319 26.4772 27.2392 26.9763 27.7293 27.3849C28.2316 27.8086 28.8075 28.1358 29.4281 28.3502C30.0773 28.5767 30.7602 28.6905 31.4476 28.6869C32.7911 28.6869 33.8401 28.3978 34.5946 27.8196C35.349 27.2368 35.9233 26.4514 36.251 25.5544L42.3604 27.289ZM35.7286 19.3342C35.6904 18.8558 35.5854 18.3853 35.4165 17.9363C35.2321 17.4449 34.9421 17.0004 34.567 16.6343C34.1437 16.2226 33.6465 15.8951 33.1018 15.669C32.4067 15.3944 31.6634 15.2639 30.9167 15.2854C30.2249 15.2703 29.5377 15.401 28.8993 15.669C28.3585 15.9025 27.8626 16.2292 27.4341 16.6343C27.0457 17.0024 26.7351 17.4452 26.521 17.9363C26.3217 18.3781 26.1996 18.8509 26.16 19.3342H35.7286Z" fill="#111928"/>
<path d="M66.0773 27.2887C65.782 28.3322 65.3286 29.324 64.7331 30.2294C64.1163 31.1723 63.3368 31.9971 62.4311 32.665C61.4453 33.3879 60.3477 33.943 59.1821 34.308C57.8533 34.7246 56.4673 34.9281 55.0752 34.911C53.4654 34.9153 51.8686 34.6213 50.3652 34.0438C48.8842 33.4805 47.5289 32.6288 46.3772 31.5378C45.1991 30.4079 44.2671 29.0453 43.64 27.5359C42.9397 25.8239 42.5957 23.9863 42.6292 22.1361C42.6036 20.3435 42.9387 18.5642 43.6145 16.9046C44.2251 15.4168 45.1237 14.0653 46.2583 12.9283C48.4675 10.7456 51.4398 9.51652 54.5401 9.50391C58.2549 9.50391 61.1776 10.5807 63.3082 12.7344C65.4388 14.8881 66.5006 17.9097 66.4935 21.7994C66.4935 22.3137 66.4772 22.8038 66.4446 23.2697C66.4406 23.5373 66.4086 23.8037 66.3491 24.0646H49.7409C49.765 24.714 49.938 25.3491 50.2463 25.9206C50.5488 26.4833 50.9561 26.9824 51.4461 27.391C51.9486 27.8145 52.5245 28.1417 53.1449 28.3563C53.7934 28.5829 54.4756 28.6968 55.1623 28.693C56.5058 28.693 57.5548 28.4039 58.3094 27.8257C59.0637 27.2429 59.638 26.4575 59.9657 25.5605L66.0773 27.2887ZM59.4582 19.3339C59.418 18.8559 59.313 18.3856 59.146 17.936C58.9609 17.445 58.671 17.0007 58.2966 16.634C57.8725 16.2233 57.3755 15.8959 56.8314 15.6687C56.1355 15.3943 55.3915 15.2639 54.6441 15.2851C53.9524 15.27 53.2651 15.4007 52.6268 15.6687C52.086 15.9022 51.5901 16.2289 51.1615 16.634C50.7731 17.0021 50.4626 17.4449 50.2484 17.936C50.0491 18.3778 49.927 18.8506 49.8874 19.3339H59.4582Z" fill="#111928"/>
<path d="M80.7169 21.0217L90.2303 34.9068H81.2923L75.6713 26.4683L73.3185 29.0255V34.9068H66.0156V0H73.3185V18.9952L80.5725 10.9445H90.0392L80.7169 21.0217Z" fill="#111928"/>
<path d="M8.88077 34.8811C9.10799 34.8811 9.32459 34.9067 9.5603 34.9067C10.9852 34.9364 12.4032 34.6994 13.7415 34.2077C14.84 33.7928 15.8491 33.1707 16.7145 32.3751C17.4886 31.6571 18.0954 30.7768 18.4919 29.7967C18.8724 28.8484 19.0677 27.8356 19.0674 26.8134C19.079 25.0747 18.4358 23.3957 17.2666 22.1125C16.0689 20.743 14.2208 19.8005 11.7221 19.2848L8.55162 18.6583C8.0615 18.5851 7.59851 18.3861 7.20742 18.0808C7.032 17.9348 6.89288 17.7498 6.8011 17.5404C6.70932 17.3311 6.6674 17.1031 6.67866 16.8747C6.66932 16.577 6.73485 16.2818 6.8692 16.0163C7.00355 15.7507 7.2024 15.5234 7.44738 15.3553C7.98147 14.9795 8.62151 14.7854 9.27362 14.8013C10.392 14.8013 11.2167 15.0904 11.7475 15.6686C12.2736 16.2408 12.602 16.9678 12.684 17.742L18.7382 16.6339C18.6518 15.842 18.4411 15.0689 18.1139 14.3431C17.7213 13.4679 17.1573 12.6809 16.4554 12.0289C15.6091 11.25 14.6234 10.639 13.5504 10.2283C12.3627 9.74529 10.9052 9.50379 9.17807 9.50379C7.91614 9.49324 6.66254 9.70976 5.47674 10.1431C4.4109 10.5258 3.42515 11.1039 2.56962 11.8478C1.77011 12.547 1.12432 13.4055 0.673305 14.3687C0.223356 15.3343 -0.00659983 16.3884 0.000144159 17.4543C-0.00280843 18.2733 0.127007 19.0873 0.384504 19.8644C0.647913 20.6544 1.07325 21.3803 1.63314 21.9953C2.26656 22.6827 3.01465 23.2538 3.84374 23.683C4.87582 24.2156 5.97527 24.6048 7.11187 24.8401L9.8491 25.4794C10.7452 25.6712 11.3618 25.9361 11.6987 26.2742C11.859 26.4258 11.9866 26.6088 12.0736 26.8118C12.1605 27.0149 12.205 27.2338 12.2041 27.4548C12.2005 27.7324 12.1362 28.0058 12.0159 28.2558C11.8956 28.5058 11.722 28.7263 11.5076 28.9017C11.2608 29.1148 10.9711 29.2718 10.6582 29.362L8.88077 34.8811Z" fill="#111928"/>
<path d="M7.92589 36.6028H0.623047V60.5651H7.92589V36.6028Z" fill="#111928"/>
<path d="M23.2064 35.8809C24.9171 35.8651 26.6143 36.1843 28.2031 36.8207C29.7007 37.4208 31.0643 38.314 32.2145 39.4481C33.3647 40.5916 34.279 41.9515 34.905 43.45C35.5777 45.0694 35.913 46.8099 35.8903 48.5643C35.9113 50.3254 35.5761 52.0724 34.905 53.6998C34.2906 55.2036 33.3804 56.5678 32.229 57.7108C31.0775 58.8539 29.7083 59.7523 28.2031 60.3526C26.6147 60.9907 24.9173 61.3106 23.2064 61.2945C21.4956 61.3106 19.7981 60.9907 18.2098 60.3526C16.7046 59.7523 15.3354 58.8539 14.1839 57.7108C13.0325 56.5678 12.1223 55.2036 11.5079 53.6998C10.837 52.0731 10.5018 50.3268 10.5226 48.5664C10.4999 46.812 10.8352 45.0716 11.5079 43.4521C12.1339 41.9537 13.0481 40.5938 14.1984 39.4502C15.3486 38.3161 16.7122 37.4229 18.2098 36.8228C19.7984 36.1857 21.4957 35.8658 23.2064 35.8809V35.8809ZM23.2064 54.5394C23.896 54.5429 24.5803 54.4201 25.2259 54.1771C25.865 53.9347 26.4445 53.5567 26.9248 53.0691C27.443 52.536 27.8507 51.9052 28.1246 51.213C28.7334 49.5059 28.7334 47.6397 28.1246 45.9326C27.8585 45.2364 27.4497 44.6041 26.9248 44.0765C26.439 43.6014 25.8606 43.2321 25.2259 42.9919C23.9309 42.5116 22.5075 42.5116 21.2124 42.9919C20.5662 43.2264 19.977 43.5961 19.4839 44.0765C18.9575 44.6034 18.5479 45.2358 18.282 45.9326C17.6732 47.6317 17.6732 49.4905 18.282 51.1896C18.553 51.8881 18.9618 52.5245 19.4839 53.0605C19.9712 53.5538 20.5616 53.9323 21.2124 54.1686C21.8498 54.4104 22.5251 54.536 23.2064 54.5394Z" fill="#111928"/>
<path d="M52.9003 43.8354C52.5047 43.7428 52.103 43.6787 51.6983 43.6436C51.314 43.6116 50.9466 43.5946 50.5941 43.5946C49.8728 43.5911 49.1557 43.7048 48.4706 43.9313C47.7997 44.1567 47.1909 44.537 46.6932 45.0415C46.1428 45.6188 45.7246 46.3096 45.4679 47.0659C45.1444 48.0451 44.9928 49.0733 45.0198 50.1046V60.5653H37.7148V36.603H44.7777V39.8335C45.0715 39.1955 45.4878 38.6219 46.003 38.1458C46.4802 37.7076 47.0235 37.348 47.6126 37.0803C48.1744 36.8292 48.7629 36.6433 49.3667 36.5263C49.897 36.4211 50.4358 36.3648 50.9763 36.3579C51.625 36.3469 52.272 36.428 52.8981 36.5987L52.9003 43.8354Z" fill="#111928"/>
<path d="M0.623047 30.6151C0.626645 29.6423 1.01281 28.7103 1.69756 28.0217C2.0268 27.6903 2.41598 27.4248 2.84427 27.2397C3.28436 27.0476 3.75951 26.9496 4.23943 26.952C4.72658 26.9401 5.21098 27.0286 5.66276 27.2118C6.11454 27.3951 6.52412 27.6692 6.86624 28.0174C7.54911 28.7066 7.93242 29.6389 7.93242 30.6108C7.93242 31.5826 7.54911 32.515 6.86624 33.2041C6.52435 33.5527 6.11481 33.827 5.66297 34.0103C5.21114 34.1936 4.72663 34.2818 4.23943 34.2696C3.75951 34.272 3.28436 34.174 2.84427 33.9819C2.41715 33.7984 2.02818 33.536 1.69756 33.2084C1.01748 32.5178 0.635997 31.586 0.635788 30.6151H0.623047Z" fill="#111928"/>
</svg>
