<svg width="75" height="51" viewBox="0 0 75 51" fill="none" xmlns="http://www.w3.org/2000/svg">
<path d="M34.7909 22.3344C34.5484 23.1888 34.1755 24.0007 33.6851 24.7412C33.1777 25.5133 32.5362 26.1884 31.7911 26.7347C30.9823 27.3256 30.0821 27.7799 29.1262 28.0793C28.0343 28.4204 26.8953 28.587 25.7514 28.5729C24.4299 28.5762 23.1191 28.3355 21.8849 27.8631C20.6692 27.4019 19.5566 26.7048 18.6113 25.8121C17.6427 24.8878 16.8766 23.7725 16.3615 22.5367C15.7878 21.1352 15.5059 19.6314 15.533 18.1173C15.5113 16.6484 15.7866 15.1903 16.3423 13.8304C16.8431 12.6124 17.5812 11.5061 18.5136 10.576C20.3275 8.78875 22.769 7.78272 25.3154 7.77332C28.3652 7.77332 30.7656 8.65464 32.5166 10.4173C34.2677 12.18 35.1426 14.653 35.1414 17.8365C35.1414 18.2574 35.128 18.6585 35.1013 19.0399C35.097 19.2588 35.0707 19.4768 35.0228 19.6904H21.3739C21.3937 20.2219 21.5357 20.7418 21.789 21.2095C22.0374 21.67 22.3719 22.0785 22.7743 22.4129C23.187 22.7597 23.6599 23.0275 24.1696 23.2029C24.7028 23.3883 25.2637 23.4815 25.8282 23.4785C26.9316 23.4785 27.7931 23.2419 28.4129 22.7687C29.0324 22.2917 29.5041 21.6489 29.7732 20.9148L34.7909 22.3344ZM29.3442 15.8239C29.3128 15.4324 29.2265 15.0472 29.0878 14.6798C28.9364 14.2776 28.6982 13.9138 28.3902 13.6141C28.0425 13.2772 27.6342 13.0092 27.1868 12.8241C26.6159 12.5993 26.0054 12.4926 25.3922 12.5102C24.824 12.4978 24.2596 12.6047 23.7353 12.8241C23.2911 13.0152 22.8839 13.2826 22.5319 13.6141C22.2129 13.9154 21.9579 14.2778 21.782 14.6798C21.6183 15.0413 21.518 15.4283 21.4855 15.8239H29.3442Z" fill="#111928"/>
<path d="M54.2694 22.3342C54.0269 23.1883 53.6545 24 53.1654 24.741C52.6589 25.5127 52.0187 26.1877 51.2749 26.7344C50.4652 27.3261 49.5637 27.7804 48.6065 28.0791C47.5151 28.4201 46.3768 28.5866 45.2335 28.5727C43.9113 28.5761 42.5999 28.3355 41.3652 27.8628C40.1488 27.4018 39.0357 26.7048 38.0898 25.8118C37.1223 24.8871 36.3568 23.7718 35.8418 22.5365C35.2666 21.1354 34.9841 19.6314 35.0116 18.1171C34.9906 16.6499 35.2658 15.1937 35.8208 13.8354C36.3223 12.6177 37.0603 11.5116 37.9922 10.581C39.8066 8.79454 42.2477 7.78865 44.794 7.77832C47.8449 7.77832 50.2453 8.65965 51.9952 10.4223C53.745 12.185 54.6171 14.658 54.6113 17.8415C54.6113 18.2624 54.5979 18.6635 54.5711 19.0449C54.5678 19.2639 54.5415 19.4819 54.4927 19.6954H40.8524C40.8723 20.2269 41.0143 20.7468 41.2675 21.2145C41.5159 21.675 41.8505 22.0835 42.2529 22.4179C42.6656 22.7645 43.1386 23.0323 43.6481 23.208C44.1807 23.3935 44.741 23.4867 45.305 23.4835C46.4084 23.4835 47.27 23.2469 47.8897 22.7737C48.5092 22.2967 48.9809 21.6539 49.25 20.9198L54.2694 22.3342ZM48.8332 15.8236C48.8002 15.4324 48.7139 15.0475 48.5768 14.6795C48.4248 14.2777 48.1867 13.914 47.8792 13.6139C47.5309 13.2778 47.1227 13.0098 46.6758 12.8239C46.1043 12.5993 45.4933 12.4925 44.8794 12.5099C44.3113 12.4976 43.7468 12.6045 43.2226 12.8239C42.7784 13.015 42.3711 13.2823 42.0192 13.6139C41.7002 13.9152 41.4451 14.2776 41.2693 14.6795C41.1056 15.0411 41.0053 15.4281 40.9728 15.8236H48.8332Z" fill="#111928"/>
<path d="M66.2909 17.2051L74.1042 28.5693H66.7635L62.147 21.6629L60.2146 23.7557V28.5693H54.2168V0H60.2146V15.5465L66.1723 8.95745H73.9473L66.2909 17.2051Z" fill="#111928"/>
<path d="M7.29375 28.5483C7.48036 28.5483 7.65825 28.5692 7.85184 28.5692C9.02213 28.5936 10.1867 28.3996 11.2859 27.9972C12.188 27.6576 13.0168 27.1485 13.7276 26.4973C14.3633 25.9097 14.8617 25.1891 15.1873 24.387C15.4998 23.6109 15.6603 22.782 15.66 21.9453C15.6695 20.5223 15.1413 19.1482 14.181 18.0979C13.1974 16.9771 11.6795 16.2056 9.62729 15.7836L7.02342 15.2708C6.62089 15.2109 6.24063 15.0481 5.91943 14.7982C5.77535 14.6787 5.6611 14.5273 5.58572 14.3559C5.51034 14.1846 5.47591 13.998 5.48516 13.8111C5.47749 13.5674 5.53131 13.3258 5.64165 13.1085C5.752 12.8911 5.91531 12.7051 6.11651 12.5675C6.55516 12.26 7.08082 12.101 7.6164 12.1141C8.53493 12.1141 9.2122 12.3507 9.64822 12.8239C10.0803 13.2922 10.35 13.8873 10.4173 14.5209L15.3896 13.614C15.3187 12.9659 15.1456 12.3331 14.8769 11.7391C14.5545 11.0228 14.0912 10.3787 13.5148 9.84508C12.8197 9.20752 12.0102 8.70745 11.1289 8.37135C10.1534 7.97604 8.95641 7.77838 7.53791 7.77838C6.5015 7.76975 5.47192 7.94695 4.49803 8.30159C3.62265 8.61487 2.81306 9.08797 2.11042 9.69683C1.45378 10.2691 0.923397 10.9717 0.552983 11.76C0.183441 12.5503 -0.00542042 13.413 0.000118398 14.2854C-0.00230655 14.9557 0.10431 15.6219 0.315792 16.258C0.532128 16.9045 0.881459 17.4986 1.34129 18.002C1.86152 18.5646 2.47592 19.032 3.15685 19.3833C4.0045 19.8192 4.90746 20.1378 5.84095 20.3303L8.08903 20.8535C8.82502 21.0105 9.33138 21.2273 9.6081 21.5041C9.73979 21.6281 9.84459 21.7779 9.916 21.9441C9.9874 22.1103 10.0239 22.2894 10.0232 22.4703C10.0202 22.6975 9.96745 22.9213 9.86862 23.1259C9.76978 23.3305 9.62727 23.5109 9.45114 23.6545C9.24848 23.8289 9.0105 23.9574 8.75352 24.0312L7.29375 28.5483Z" fill="#111928"/>
<path d="M6.51147 29.9575H0.513672V49.5694H6.51147V29.9575Z" fill="#111928"/>
<path d="M19.0587 29.3663C20.4637 29.3533 21.8576 29.6146 23.1625 30.1354C24.3924 30.6266 25.5124 31.3576 26.457 32.2858C27.4017 33.2218 28.1526 34.3348 28.6667 35.5612C29.2192 36.8866 29.4946 38.3111 29.476 39.7469C29.4932 41.1883 29.2179 42.6182 28.6667 43.9501C28.1621 45.1809 27.4146 46.2974 26.4689 47.2329C25.5232 48.1684 24.3987 48.9037 23.1625 49.395C21.858 49.9172 20.4638 50.1791 19.0587 50.1659C17.6536 50.1791 16.2595 49.9172 14.955 49.395C13.7188 48.9037 12.5943 48.1684 11.6486 47.2329C10.7029 46.2974 9.9554 45.1809 9.45075 43.9501C8.89978 42.6187 8.62448 41.1894 8.64151 39.7486C8.62286 38.3128 8.89826 36.8883 9.45075 35.5629C9.96487 34.3365 10.7158 33.2235 11.6605 32.2876C12.6051 31.3593 13.725 30.6284 14.955 30.1372C16.2597 29.6157 17.6537 29.3539 19.0587 29.3663V29.3663ZM19.0587 44.6372C19.625 44.6401 20.1871 44.5396 20.7173 44.3407C21.2422 44.1423 21.7181 43.833 22.1126 43.4338C22.5382 42.9975 22.8731 42.4812 23.098 41.9148C23.598 40.5176 23.598 38.9902 23.098 37.593C22.8794 37.0233 22.5437 36.5058 22.1126 36.0739C21.7136 35.6851 21.2386 35.3829 20.7173 35.1862C19.6537 34.7931 18.4847 34.7931 17.4211 35.1862C16.8903 35.3781 16.4064 35.6807 16.0014 36.0739C15.5691 36.5051 15.2327 37.0228 15.0143 37.593C14.5143 38.9836 14.5143 40.505 15.0143 41.8956C15.2369 42.4673 15.5726 42.9881 16.0014 43.4269C16.4016 43.8306 16.8865 44.1404 17.4211 44.3338C17.9445 44.5317 18.4991 44.6344 19.0587 44.6372Z" fill="#111928"/>
<path d="M43.4463 35.8768C43.1214 35.801 42.7916 35.7486 42.4592 35.7198C42.1435 35.6937 41.8418 35.6797 41.5523 35.6797C40.9599 35.6768 40.3709 35.7699 39.8082 35.9553C39.2573 36.1398 38.7573 36.451 38.3485 36.8639C37.8965 37.3364 37.553 37.9018 37.3421 38.5208C37.0764 39.3222 36.9519 40.1637 36.9741 41.0078V49.5694H30.9746V29.9575H36.7753V32.6015C37.0166 32.0793 37.3585 31.6099 37.7816 31.2202C38.1736 30.8616 38.6197 30.5673 39.1036 30.3481C39.565 30.1426 40.0483 29.9905 40.5442 29.8947C40.9798 29.8086 41.4223 29.7625 41.8662 29.7569C42.399 29.7479 42.9304 29.8143 43.4446 29.954L43.4463 35.8768Z" fill="#111928"/>
<path d="M0.513672 25.0567C0.516627 24.2606 0.83378 23.4978 1.39616 22.9342C1.66657 22.663 1.9862 22.4457 2.33795 22.2942C2.6994 22.137 3.08964 22.0568 3.48379 22.0587C3.88389 22.049 4.28172 22.1214 4.65277 22.2714C5.02382 22.4214 5.3602 22.6458 5.64119 22.9307C6.20203 23.4948 6.51684 24.2579 6.51684 25.0533C6.51684 25.8487 6.20203 26.6117 5.64119 27.1758C5.36039 27.461 5.02404 27.6856 4.65295 27.8356C4.28186 27.9856 3.88393 28.0578 3.48379 28.0478C3.08964 28.0498 2.6994 27.9696 2.33795 27.8124C1.98717 27.6621 1.6677 27.4474 1.39616 27.1793C0.837615 26.614 0.524308 25.8514 0.524136 25.0567H0.513672Z" fill="#13BFB3"/>
</svg>
